<svg width="400" height="400" viewBox="0 0 400 400" fill="none" xmlns="http://www.w3.org/2000/svg">
<path fill-rule="evenodd" clip-rule="evenodd" d="M124.806 297.289C141.092 297.289 154.946 286.881 160.081 272.354H268.184C299.17 272.354 324.289 247.235 324.289 216.249C324.289 185.263 299.17 160.144 268.184 160.144H131.04C113.826 160.144 99.8708 146.19 99.8708 128.975C99.8708 111.761 113.826 97.8061 131.04 97.8061H169.513L153.393 113.925L171.025 131.557L217.244 85.3384L171.025 39.1194L153.393 56.7513L169.513 72.8707H131.04C100.054 72.8707 74.9354 97.9896 74.9354 128.975C74.9354 159.961 100.054 185.08 131.04 185.08H268.184C285.399 185.08 299.354 199.035 299.354 216.249C299.354 233.463 285.399 247.418 268.184 247.418H160.081C154.946 232.891 141.092 222.483 124.806 222.483C104.149 222.483 87.4031 239.229 87.4031 259.886C87.4031 280.543 104.149 297.289 124.806 297.289ZM112.339 259.886C112.339 253 117.92 247.418 124.806 247.418C131.692 247.418 137.274 253 137.274 259.886C137.274 266.772 131.692 272.354 124.806 272.354C117.92 272.354 112.339 266.772 112.339 259.886ZM274.418 47.9354C295.075 47.9354 311.821 64.6813 311.821 85.3384C311.821 105.996 295.075 122.741 274.418 122.741C253.761 122.741 237.015 105.996 237.015 85.3384C237.015 64.6813 253.761 47.9354 274.418 47.9354ZM261.951 85.3384C261.951 78.4527 267.533 72.8707 274.418 72.8707C281.304 72.8707 286.886 78.4527 286.886 85.3384C286.886 92.2241 281.304 97.8061 274.418 97.8061C267.533 97.8061 261.951 92.2241 261.951 85.3384Z" fill="#E85D04"/>
<path d="M95.2251 356.226C95.2251 366.324 89.1302 371.373 76.9403 371.373C64.7505 371.373 58.6555 366.324 58.6555 356.226V347.029H66.2291V356.659C66.2291 359.255 67.1307 361.275 68.934 362.717C70.7372 364.16 73.406 364.881 76.9403 364.881C80.4747 364.881 83.1435 364.16 84.9467 362.717C86.7499 361.275 87.6516 359.327 87.6516 356.875C87.6516 354.35 87.363 352.367 86.786 350.924C86.2811 349.41 85.1991 347.823 83.5402 346.164L64.498 327.554C62.262 325.318 60.7112 323.154 59.8457 321.063C59.0522 318.899 58.6555 316.194 58.6555 312.948C58.6555 308.115 60.1342 304.401 63.0915 301.804C66.1209 299.135 70.6651 297.801 76.7239 297.801C88.3368 297.801 94.1432 302.85 94.1432 312.948V322.145H86.5696V312.515C86.5696 309.919 85.7041 307.899 83.973 306.456C82.314 305.014 79.7894 304.293 76.3994 304.293C73.0093 304.293 70.4487 305.014 68.7176 306.456C67.0586 307.899 66.2291 309.883 66.2291 312.407C66.2291 314.932 66.4816 316.915 66.9865 318.358C67.4914 319.8 68.6094 321.315 70.3405 322.902L89.7072 341.511C91.799 343.819 93.2416 346.055 94.035 348.219C94.8284 350.311 95.2251 352.98 95.2251 356.226ZM109.836 369.75H102.263V299.424H118.6C124.226 299.424 128.482 300.758 131.367 303.427C134.324 306.096 135.803 309.81 135.803 314.571V332.964C135.803 337.797 134.36 341.547 131.475 344.216C128.59 346.813 124.298 348.111 118.6 348.111H109.836V369.75ZM128.229 332.964V314.571C128.229 311.83 127.4 309.702 125.741 308.188C124.082 306.673 121.702 305.915 118.6 305.915H109.836V341.62H118.6C125.02 341.62 128.229 338.734 128.229 332.964ZM175.29 369.75H172.044L169.231 362.826C167.716 365.422 165.732 367.514 163.28 369.101C160.828 370.616 158.123 371.373 155.166 371.373C144.779 371.373 139.586 366.324 139.586 356.226V345.406C139.586 335.308 144.779 330.259 155.166 330.259H167.716V312.515C167.716 309.919 166.887 307.899 165.228 306.456C163.569 305.014 161.116 304.293 157.87 304.293C151.451 304.293 148.241 307.033 148.241 312.515V318.899H140.668V312.948C140.668 308.115 142.074 304.401 144.887 301.804C147.772 299.135 152.1 297.801 157.87 297.801C163.641 297.801 167.968 299.135 170.854 301.804C173.811 304.401 175.29 308.115 175.29 312.948V369.75ZM167.716 336.751H155.166C152.136 336.751 150.044 337.508 148.89 339.023C147.736 340.538 147.159 342.665 147.159 345.406V356.226C147.159 358.967 147.736 361.094 148.89 362.609C150.044 364.124 152.136 364.881 155.166 364.881C158.195 364.881 161.008 363.727 163.605 361.419C166.201 359.039 167.572 356.695 167.716 354.386V336.751Z" fill="#142791"/>
<path d="M192.06 369.75H184.486V299.424H187.732L190.87 307.43C193.178 301.011 196.856 297.801 201.905 297.801C210.489 297.801 214.78 302.489 214.78 311.866V318.899H207.531V311.433C207.531 306.673 205.548 304.293 201.581 304.293C199.201 304.293 197.001 305.663 194.981 308.404C193.033 311.145 192.06 315.112 192.06 320.305V369.75ZM224.127 369.75H216.554V299.424H224.127V329.285L242.953 299.424H251.392L232.242 329.718L252.691 369.75H244.36L227.698 336.967L224.127 342.701V369.75ZM261.896 369.75H254.322V299.424H261.896V369.75ZM266.714 305.915V299.424H302.093V305.915L272.989 363.258H301.552V369.75H265.091V363.258L294.195 305.915H266.714ZM332.387 356.226V350.275H339.96V356.226C339.96 361.058 338.482 364.809 335.524 367.478C332.567 370.075 328.131 371.373 322.216 371.373C316.302 371.373 311.83 370.075 308.8 367.478C305.771 364.809 304.256 361.058 304.256 356.226V312.948C304.256 308.115 305.735 304.401 308.692 301.804C311.649 299.135 316.085 297.801 322 297.801C327.915 297.801 332.387 299.135 335.416 301.804C338.445 304.401 339.96 308.115 339.96 312.948V336.751H311.83V356.226C311.83 361.996 315.256 364.881 322.108 364.881C328.96 364.881 332.387 361.996 332.387 356.226ZM311.83 312.948V330.259H332.387V312.948C332.387 307.178 328.96 304.293 322.108 304.293C315.256 304.293 311.83 307.178 311.83 312.948Z" fill="#E85D04"/>
<rect x="2.5" y="2.5" width="395" height="395" rx="47.5" stroke="white" stroke-width="5"/>
</svg>
